<svg xmlns="http://www.w3.org/2000/svg" xml:space="preserve" width="2000" height="2000" data-id="lg_K4d8amJvlPG9raGDMX" data-version="1" viewBox="0 0 2000 546"><g data-padding="20"><g fill="#703424"><path d="M876.886 186.737q8.28-10.489 17.667-20.013l-9.8-9.8-9.66-9.66a231.87 231.87 0 0 0-59.351 225.94l26.638-7.453a204.27 204.27 0 0 1 34.506-179.014"/><path d="m1257.274 111.653 3.589-3.588-9.662-9.8a298.13 298.13 0 0 0-212.553-88.058 298.13 298.13 0 0 0-179.98 60.179 57.97 57.97 0 0 0-57.694-53.83 57.97 57.97 0 0 0-58.245 58.246 57.97 57.97 0 0 0 54.243 57.969c-87.962 119.554-75.609 285.415 29.122 390.602l9.66 9.66 1.934-1.793q9.11 4.417 21.531 4.555c52.724 0 151.272-63.215 245.403-157.345 54.794-54.657 100.343-112.35 128.361-162.176 26.5-46.928 34.505-82.537 24.291-104.62M779.304 96.47a30.365 30.365 0 0 1 0-43.2 30.365 30.365 0 0 1 43.201 0c12.008 11.87 12.008 31.33 0 43.338-11.456 11.456-31.745 11.456-43.2 0m38.645 374.73c-78.768-108.596-67.078-258.295 27.605-353.336 51.62-51.621 120.079-80.053 193.093-80.053 59.073 0 115.248 18.77 161.762 53.276-55.209 11.041-143.406 70.53-228.013 155.275-54.794 54.794-100.48 112.35-128.498 162.176a234.6 234.6 0 0 0-25.948 62.662m391.015-268.453c-26.776 47.755-70.806 103.24-123.944 156.24-97.995 97.996-187.71 149.34-225.805 149.34q-9.108 0-12.835-3.864c-8.005-7.867-4.417-36.438 21.532-82.4 26.914-47.755 70.943-103.24 123.943-156.24 97.997-97.996 187.71-149.202 225.806-149.202q9.11 0 12.836 3.728c8.005 7.866 4.416 36.436-21.531 82.399"/></g><path fill="transparent" stroke="transparent" d="M728.5 0h543v546h-543z"/></g></svg>