<svg width="300" height="55" viewBox="0 0 300 55" fill="none" xmlns="http://www.w3.org/2000/svg">
<path d="M97.2221 40.799H88.1974V3.5523H97.2221V40.799ZM71.2506 40.799H62.226V3.5523H71.2506V40.799ZM89.794 25.747H69.6545V18.3996H89.794V25.747ZM119.562 41.7683C116.994 41.7683 114.73 41.3602 112.769 40.5441C110.805 39.7274 109.172 38.6295 107.872 37.2504C106.568 35.8744 105.578 34.3267 104.901 32.6071C104.22 30.8911 103.88 29.1316 103.88 27.3289V26.3084C103.88 24.4374 104.22 22.6423 104.901 20.923C105.578 19.207 106.558 17.6686 107.842 16.308C109.126 14.9474 110.731 13.8667 112.658 13.0659C114.583 12.2679 116.774 11.869 119.232 11.869C122.46 11.869 125.185 12.54 127.406 13.8822C129.623 15.2275 131.319 16.9792 132.493 19.1375C133.667 21.2989 134.254 23.6551 134.254 26.2061V28.9614H107.566V24.3182H128.916L126.055 26.4614C126.055 24.7948 125.798 23.3661 125.285 22.1754C124.771 20.9847 124.011 20.0741 123.004 19.4435C121.993 18.8155 120.736 18.5015 119.232 18.5015C117.691 18.5015 116.389 18.8247 115.325 19.4712C114.261 20.1178 113.454 21.0609 112.904 22.3007C112.354 23.544 112.079 25.067 112.079 26.8698C112.079 28.5365 112.336 29.9898 112.849 31.2299C113.363 32.4729 114.17 33.4346 115.27 34.1149C116.371 34.7952 117.801 35.1353 119.562 35.1353C121.176 35.1353 122.497 34.8462 123.524 34.2679C124.551 33.6896 125.248 32.9753 125.615 32.1251H133.703C133.263 33.9958 132.401 35.6624 131.117 37.1251C129.833 38.5877 128.219 39.7274 126.275 40.5441C124.331 41.3602 122.093 41.7683 119.562 41.7683ZM149.33 40.799H140.471V3.5523H149.33V40.799ZM149.33 9.57319H136.895V3.55182L149.33 3.5523V9.57319ZM166.223 51.0036H157.419V12.8383H164.407V24.9307L163.472 24.8796C163.619 22.0901 164.242 19.7339 165.343 17.811C166.443 15.8906 167.928 14.4448 169.799 13.4738C171.67 12.5059 173.78 12.022 176.127 12.022C178.218 12.022 180.118 12.379 181.825 13.0931C183.529 13.8076 184.996 14.8019 186.227 16.0761C187.454 17.3532 188.39 18.8499 189.033 20.5663C189.673 22.2856 189.994 24.1656 189.994 26.2066V27.38C189.994 29.3868 189.682 31.2653 189.058 33.0155C188.435 34.7689 187.528 36.2919 186.337 37.5846C185.143 38.877 183.694 39.8881 181.99 40.6178C180.283 41.351 178.328 41.7176 176.128 41.7176C173.853 41.7176 171.809 41.2831 169.995 40.4141C168.177 39.5482 166.718 38.2216 165.618 36.4341C164.518 34.6498 163.912 32.38 163.802 29.6247L166.223 32.686V51.0036ZM173.651 34.88C175.155 34.88 176.468 34.54 177.588 33.86C178.705 33.1794 179.576 32.2268 180.199 31.0023C180.823 29.7782 181.135 28.3665 181.135 26.7675C181.135 25.1687 180.823 23.774 180.199 22.5833C179.576 21.3929 178.714 20.4652 177.613 19.8002C176.513 19.1387 175.192 18.808 173.651 18.808C172.331 18.808 171.084 19.0971 169.91 19.6754C168.736 20.2537 167.792 21.0778 167.079 22.1477C166.361 23.2207 166.003 24.5225 166.003 26.0531V27.9409C166.003 29.4036 166.38 30.6529 167.133 31.689C167.884 32.7283 168.846 33.5198 170.02 34.0637C171.194 34.6082 172.404 34.88 173.651 34.88ZM209.913 41.7688C207.345 41.7688 205.08 41.3607 203.12 40.5446C201.155 39.7279 199.523 38.6299 198.223 37.2508C196.918 35.8749 195.928 34.3272 195.251 32.6076C194.57 30.8915 194.23 29.1321 194.23 27.3293V26.3089C194.23 24.4379 194.57 22.6428 195.251 20.9235C195.928 19.2074 196.909 17.6691 198.193 16.3085C199.477 14.9479 201.082 13.8672 203.009 13.0664C204.934 12.2684 207.125 11.8695 209.583 11.8695C212.811 11.8695 215.536 12.5405 217.757 13.8826C219.974 15.2279 221.67 16.9797 222.843 19.1379C224.017 21.2994 224.604 23.6556 224.604 26.2066V28.9619H197.917V24.3187H219.267L216.405 26.4619C216.405 24.7953 216.148 23.3666 215.635 22.1759C215.123 20.9852 214.362 20.0746 213.354 19.444C212.343 18.816 211.086 18.502 209.583 18.502C208.042 18.502 206.74 18.8252 205.676 19.4717C204.612 20.1182 203.805 21.0614 203.255 22.3012C202.705 23.5445 202.43 25.0675 202.43 26.8703C202.43 28.5369 202.686 29.9903 203.199 31.2304C203.713 32.4734 204.52 33.435 205.621 34.1153C206.721 34.7956 208.152 35.1358 209.913 35.1358C211.527 35.1358 212.847 34.8467 213.874 34.2684C214.901 33.6901 215.598 32.9758 215.966 32.1256H224.054C223.614 33.9963 222.752 35.6629 221.468 37.1255C220.184 38.5882 218.57 39.7279 216.626 40.5446C214.681 41.3607 212.444 41.7688 209.913 41.7688ZM255.638 40.8038H248.65V32.5378H247.165V23.5579C247.165 22.1293 246.798 21.0579 246.064 20.3435C245.33 19.6294 244.156 19.2723 242.542 19.2723C241.735 19.2723 240.671 19.2892 239.351 19.323C238.03 19.3568 236.673 19.4078 235.279 19.476C233.885 19.5443 232.619 19.6123 231.482 19.6802V12.7919C232.326 12.724 233.316 12.6561 234.454 12.5882C235.591 12.52 236.765 12.4689 237.975 12.4352C239.186 12.4014 240.323 12.3843 241.387 12.384C244.468 12.384 247.064 12.792 249.175 13.6082C251.283 14.4246 252.886 15.657 253.987 17.3055C255.087 18.9569 255.638 21.0751 255.638 23.6602L255.638 40.8038ZM239.021 41.5177C236.856 41.5177 234.959 41.1607 233.328 40.4466C231.694 39.7325 230.419 38.7028 229.501 37.3575C228.585 36.0153 228.126 34.4088 228.126 32.5378C228.126 30.4969 228.695 28.8208 229.831 27.5096C230.969 26.2016 232.565 25.2323 234.619 24.6017C236.673 23.9737 239.039 23.6597 241.717 23.6597H248.155V28.2011H241.662C240.121 28.2011 238.939 28.5489 238.115 29.2445C237.288 29.9433 236.875 30.888 236.875 32.0787C236.875 33.2012 237.288 34.1104 238.115 34.8063C238.939 35.5051 240.121 35.8545 241.662 35.8545C242.652 35.8545 243.543 35.6921 244.333 35.3672C245.12 35.0456 245.771 34.4936 246.284 33.7113C246.798 32.929 247.091 31.8407 247.165 30.4467L249.255 32.4876C249.072 34.4262 248.568 36.0589 247.744 37.3857C246.917 38.7122 245.78 39.7326 244.333 40.4471C242.883 41.1612 241.112 41.5177 239.021 41.5177ZM281.06 41.1562H276.823C273.778 41.1562 271.32 40.8067 269.449 40.1075C267.578 39.4119 266.213 38.2385 265.353 36.5871C264.489 34.9389 264.057 32.7032 264.057 29.88V5.28669H272.256V30.1861C272.256 31.5126 272.632 32.5238 273.386 33.2197C274.137 33.9185 275.209 34.2679 276.602 34.2679H281.06V41.1562ZM281.06 18.808H259.49V12.8383H281.06V18.808ZM15.0775 18.8754C15.4674 18.4176 15.8833 17.9809 16.3255 17.5652L15.6329 16.9234L14.9506 16.2908C12.9023 18.1923 11.4351 20.5638 10.6988 23.1632C9.96247 25.7626 9.98345 28.4966 10.7596 31.086L12.6408 30.5978C12.0402 28.6023 11.9476 26.5048 12.3705 24.4705C12.7933 22.4363 13.72 20.5209 15.0775 18.8754Z" fill="#703424"/>
<path d="M41.939 13.9587L42.1928 13.7244L41.5105 13.0822C39.5453 11.247 37.2063 9.79233 34.6296 8.80256C32.0529 7.81279 29.2897 7.3077 26.5007 7.31663C21.9143 7.31111 17.4514 8.69468 13.7908 11.2569C13.7167 10.3012 13.2555 9.40683 12.4999 8.7532C11.7443 8.09956 10.7502 7.73501 9.71683 7.73265C9.17604 7.73038 8.64012 7.82746 8.14 8.01829C7.63989 8.20913 7.18551 8.48994 6.80308 8.84451C6.42065 9.19908 6.11778 9.62039 5.91191 10.0841C5.70605 10.5478 5.60125 11.0448 5.60364 11.5462C5.60174 12.512 5.99685 13.4422 6.7085 14.1474C7.42015 14.8526 8.39487 15.2798 9.43425 15.3421C3.2227 23.1705 4.09474 34.0312 11.4903 40.919L12.1726 41.5517L12.3087 41.4345C12.7378 41.6274 13.2447 41.7267 13.8295 41.7324C17.5528 41.7324 24.5116 37.5932 31.1589 31.4294C35.0282 27.8506 38.2446 24.0729 40.2233 20.8102C42.0948 17.7373 42.66 15.4057 41.9385 13.9596M8.18627 12.965C7.98459 12.78 7.82445 12.5598 7.71518 12.317C7.60591 12.0743 7.54965 11.8138 7.54965 11.5508C7.54965 11.2877 7.60591 11.0273 7.71518 10.7845C7.82445 10.5418 7.98459 10.3215 8.18627 10.1365C8.38578 9.9495 8.6233 9.80103 8.88509 9.69971C9.14689 9.59838 9.42774 9.54621 9.71142 9.54621C9.99511 9.54621 10.276 9.59838 10.5378 9.69971C10.7996 9.80103 11.0371 9.9495 11.2366 10.1365C12.0849 10.9136 12.0849 12.188 11.2366 12.9746C10.428 13.7244 8.99488 13.7244 8.18627 12.9746M10.9153 37.5119C5.35304 30.4008 6.17865 20.5979 12.8646 14.3747C16.5101 10.9949 21.3447 9.1328 26.4996 9.1328C30.6716 9.1328 34.6389 10.3617 37.9233 12.6217C34.0247 13.3447 27.7966 17.2396 21.8223 22.7889C17.9525 26.3768 14.7263 30.1459 12.7481 33.4086C11.9261 34.6866 11.3089 36.0687 10.9158 37.5115M38.5277 19.9332C36.6372 23.0601 33.528 26.6934 29.7753 30.1636C22.8547 36.5809 16.5199 39.9426 13.83 39.9426C13.401 39.9426 13.0988 39.8583 12.9234 39.6896C12.3582 39.1746 12.6114 37.3035 14.4437 34.2942C16.3446 31.1668 19.4537 27.534 23.1966 24.0633C30.1167 17.6455 36.452 14.2934 39.1419 14.2934C39.5706 14.2934 39.8728 14.3747 40.0485 14.5373C40.6137 15.0528 40.36 16.9235 38.5272 19.9332" fill="#703424"/>
</svg>
